<?xml version="1.0" standalone="no"?>
<!DOCTYPE svg PUBLIC "-//W3C//DTD SVG 20010904//EN"
 "http://www.w3.org/TR/2001/REC-SVG-20010904/DTD/svg10.dtd">
<svg version="1.0" xmlns="http://www.w3.org/2000/svg"
 width="1280.000000pt" height="1280.000000pt" viewBox="0 0 1280.000000 1280.000000"
 preserveAspectRatio="xMidYMid meet">

<g transform="translate(0.000000,1280.000000) scale(0.100000,-0.100000)"
fill="#000000" stroke="none">
<path d="M6551 11582 c-25 -9 -69 -39 -98 -66 -66 -60 -69 -89 -17 -191 41
-80 40 -96 -6 -187 -35 -68 -38 -114 -10 -161 51 -86 60 -138 60 -348 l0 -197
43 -37 c23 -21 74 -52 112 -70 49 -23 81 -46 108 -79 31 -37 48 -49 95 -62
218 -61 224 -63 277 -120 38 -41 64 -58 108 -74 93 -31 179 -78 227 -125 50
-48 88 -69 140 -79 105 -21 165 -49 225 -106 67 -64 94 -80 179 -104 48 -14
69 -28 110 -71 46 -47 62 -57 157 -90 125 -43 146 -56 191 -115 36 -48 39 -49
248 -110 66 -19 81 -28 125 -76 40 -42 65 -59 115 -78 103 -37 187 -83 222
-122 42 -45 87 -69 173 -89 101 -23 153 -50 197 -100 45 -51 90 -77 182 -106
53 -16 70 -27 102 -65 39 -48 114 -90 234 -129 40 -13 72 -34 116 -77 42 -40
77 -64 115 -77 97 -34 213 -92 258 -129 38 -31 61 -40 150 -59 157 -33 179
-32 226 17 39 40 40 44 47 128 3 48 7 283 7 523 l1 436 -35 46 c-24 31 -52 54
-91 71 -34 16 -73 45 -99 74 -30 33 -57 52 -87 61 -88 26 -188 80 -241 130
-57 54 -75 63 -170 85 -95 22 -150 50 -212 106 -62 56 -70 60 -171 86 -106 26
-148 48 -218 113 -35 33 -90 73 -123 89 -36 19 -75 50 -104 84 -46 53 -49 55
-150 82 -144 38 -187 59 -236 115 -35 40 -55 53 -120 76 -101 35 -211 90 -244
122 -14 13 -66 39 -115 57 -126 47 -165 68 -235 131 -34 31 -77 59 -98 65
-193 51 -190 50 -265 124 -72 72 -101 90 -190 121 -26 10 -69 36 -95 59 -43
38 -120 74 -285 131 -26 10 -70 36 -96 59 -26 22 -98 68 -160 101 -102 55
-136 76 -197 120 -12 9 -58 29 -102 45 -43 16 -93 36 -110 44 -38 20 -114 19
-170 -2z m233 -132 c37 -13 82 -34 100 -47 44 -33 67 -46 196 -118 63 -36 129
-78 146 -94 38 -35 93 -65 152 -80 77 -21 204 -81 223 -105 20 -26 131 -86
158 -86 24 0 89 -48 156 -115 63 -64 63 -64 256 -115 21 -6 64 -34 98 -65 70
-63 109 -84 235 -131 49 -18 101 -44 115 -57 33 -31 143 -87 242 -122 62 -22
83 -35 113 -71 47 -56 87 -76 228 -115 110 -31 114 -33 162 -86 29 -33 72 -66
108 -84 33 -17 89 -57 124 -90 70 -65 112 -87 218 -113 101 -26 109 -30 171
-86 62 -56 117 -84 212 -106 95 -22 113 -31 170 -85 52 -50 153 -104 240 -129
30 -9 54 -27 82 -60 26 -31 59 -55 94 -71 101 -44 97 -26 96 -470 -1 -448 -7
-551 -31 -576 -17 -16 -23 -16 -113 1 -81 16 -102 24 -143 57 -49 39 -164 96
-262 130 -39 14 -68 34 -105 72 -34 36 -67 60 -100 72 -153 56 -206 84 -251
134 -37 42 -57 54 -109 70 -93 29 -136 54 -174 101 -39 49 -103 82 -205 105
-87 20 -124 39 -158 80 -30 36 -134 94 -234 130 -38 14 -73 34 -83 47 -45 65
-84 87 -212 123 -147 41 -153 43 -177 80 -34 53 -90 88 -209 130 -96 35 -114
45 -158 91 -41 42 -61 56 -110 69 -87 25 -129 49 -164 94 -38 47 -108 84 -211
109 -93 23 -114 34 -165 86 -42 42 -135 93 -232 127 -40 13 -66 31 -95 64 -51
58 -69 67 -217 109 -116 32 -123 36 -163 81 -27 31 -62 57 -98 72 -30 14 -72
36 -92 50 l-38 26 0 197 c0 205 -7 247 -54 338 -15 29 -15 33 8 79 55 109 55
176 1 284 l-25 48 33 24 c17 13 50 31 72 39 37 15 43 14 75 -2 19 -10 66 -28
104 -40z"/>
<path d="M5852 11544 c-18 -12 -54 -30 -80 -39 -181 -63 -221 -84 -284 -148
-45 -45 -76 -67 -108 -77 -73 -22 -122 -50 -163 -92 -45 -46 -96 -71 -201 -98
-94 -24 -131 -43 -178 -91 -40 -41 -99 -74 -211 -118 -52 -21 -87 -43 -128
-82 -48 -47 -72 -60 -174 -99 -89 -34 -126 -53 -149 -79 -43 -47 -94 -73 -228
-120 -110 -37 -121 -44 -176 -100 -44 -45 -70 -63 -109 -74 -74 -22 -112 -44
-169 -98 -54 -50 -103 -70 -217 -89 -74 -12 -106 -30 -164 -91 -49 -53 -119
-93 -210 -123 -37 -12 -69 -34 -110 -74 -53 -51 -73 -62 -187 -106 -70 -27
-130 -55 -133 -63 -10 -26 -88 -70 -178 -101 -112 -38 -205 -79 -205 -90 0
-17 -86 -70 -140 -88 -72 -23 -90 -36 -220 -163 l-110 -107 2 -468 3 -469 36
-29 37 -30 78 33 c59 24 89 43 118 76 42 48 81 71 171 99 47 14 71 30 117 76
63 64 110 89 213 113 86 20 134 45 162 82 23 32 146 100 230 128 39 12 66 31
104 71 34 34 68 59 98 70 127 46 217 90 239 116 36 42 94 72 225 118 107 37
123 46 170 93 45 45 63 56 132 77 71 22 87 32 143 87 66 65 113 89 225 113 58
13 68 21 134 98 46 54 64 63 191 98 100 26 106 30 160 85 60 61 49 55 269 119
60 17 75 26 92 54 26 42 75 80 136 106 26 11 75 47 110 81 68 65 119 90 225
109 84 15 136 43 184 97 39 44 107 84 201 118 28 10 55 23 61 29 6 6 18 56 27
111 13 76 18 190 21 480 3 358 2 383 -16 430 -11 28 -22 53 -26 56 -4 3 -22
-4 -40 -17z"/>
<path d="M6205 10314 c-87 -19 -112 -31 -174 -87 -68 -61 -109 -83 -220 -119
-66 -21 -144 -81 -156 -119 -4 -12 -20 -21 -43 -25 -20 -3 -80 -23 -132 -43
-79 -30 -104 -45 -150 -91 -49 -49 -62 -57 -120 -68 -36 -8 -83 -22 -105 -32
-22 -10 -50 -21 -62 -24 -12 -4 -48 -36 -80 -70 -49 -54 -65 -65 -102 -71 -24
-4 -59 -14 -78 -21 -39 -17 -147 -97 -165 -123 -15 -21 -89 -53 -163 -70 -56
-13 -108 -51 -143 -102 -18 -27 -36 -38 -81 -50 -31 -9 -66 -21 -76 -27 -11
-7 -40 -16 -63 -22 -49 -13 -129 -79 -138 -115 -5 -19 -17 -25 -72 -36 -100
-18 -201 -68 -245 -119 -20 -24 -37 -47 -37 -51 0 -8 -27 -17 -120 -40 -34 -8
-61 -28 -122 -87 -78 -75 -78 -76 -78 -128 0 -44 5 -60 33 -96 18 -24 47 -72
63 -108 39 -83 86 -137 144 -164 25 -12 56 -29 70 -38 14 -9 46 -23 72 -32 32
-11 64 -33 105 -75 43 -44 69 -62 103 -71 98 -26 132 -44 184 -93 29 -29 68
-63 85 -76 36 -26 121 -61 150 -61 11 0 34 -20 55 -50 40 -56 80 -85 141 -101
22 -6 45 -14 50 -19 6 -4 28 -13 50 -20 25 -8 64 -35 105 -76 67 -65 106 -87
176 -98 35 -6 43 -13 57 -44 27 -62 76 -100 176 -138 50 -18 98 -34 106 -34 8
0 45 -31 82 -69 62 -63 75 -71 142 -91 63 -18 80 -29 120 -72 54 -59 150 -111
238 -128 56 -11 63 -15 73 -44 6 -17 25 -45 42 -63 18 -18 30 -33 27 -33 -2 0
-33 9 -67 20 -35 11 -75 20 -88 20 -16 0 -28 9 -38 28 -22 43 -98 108 -142
121 -104 33 -153 58 -217 114 -58 52 -78 63 -150 84 -57 16 -87 30 -97 46 -8
12 -34 43 -58 69 -48 51 -87 69 -212 92 -50 10 -78 20 -85 32 -19 33 -89 105
-114 119 -15 7 -68 27 -120 45 -85 29 -99 37 -148 91 -45 48 -65 61 -111 75
-99 29 -113 36 -158 84 -52 55 -154 106 -230 116 -54 7 -104 29 -104 44 0 6
-19 31 -42 56 -46 50 -133 95 -223 116 -44 10 -57 18 -66 40 -18 44 -83 95
-140 112 -71 21 -308 22 -347 2 -37 -19 -109 -95 -120 -127 -6 -14 -13 -219
-17 -457 -9 -496 -10 -486 75 -566 27 -25 53 -46 59 -46 5 0 14 -15 20 -32 7
-18 28 -50 48 -70 l37 -38 -50 0 c-63 0 -120 -37 -158 -102 l-25 -43 -3 -465
c-3 -440 -2 -469 17 -530 16 -52 30 -75 70 -115 28 -27 68 -62 90 -77 l38 -28
-30 0 c-38 0 -104 -47 -137 -97 -40 -60 -47 -148 -49 -570 -2 -480 -4 -471
110 -581 83 -80 129 -108 192 -118 28 -4 42 -13 47 -26 10 -31 64 -88 103
-107 20 -10 79 -30 131 -46 90 -26 98 -31 148 -86 44 -48 63 -61 110 -75 109
-32 133 -45 185 -97 64 -65 136 -104 224 -122 42 -9 72 -21 78 -31 47 -79 133
-130 268 -158 42 -9 79 -16 81 -16 3 0 12 -15 19 -33 25 -58 95 -109 195 -141
80 -26 97 -36 144 -83 59 -61 105 -88 163 -98 68 -11 94 -26 158 -90 67 -67
131 -98 227 -111 45 -6 55 -11 69 -37 35 -67 83 -107 165 -137 43 -16 93 -32
110 -36 17 -3 54 -28 81 -54 93 -87 140 -100 368 -100 l167 0 0 55 c0 48 2 55
20 55 43 0 101 34 143 83 49 57 78 74 182 106 54 16 84 32 127 71 31 28 90 66
130 86 40 20 91 45 113 56 22 10 56 41 77 67 30 41 43 49 80 55 80 12 204 55
229 79 13 13 31 37 41 54 22 42 54 62 128 79 82 19 111 35 174 99 56 56 89 71
238 110 46 12 71 28 120 73 55 51 146 102 182 102 6 0 34 11 63 24 43 20 56
33 78 75 18 38 32 52 53 57 154 34 250 79 280 132 29 51 55 68 139 87 38 9 80
23 94 33 14 9 49 32 77 50 27 18 53 39 55 47 3 7 50 28 105 44 117 36 137 55
163 146 10 36 30 80 44 97 53 63 55 78 55 385 0 254 -2 295 -21 374 -11 48
-26 92 -33 98 -9 8 -34 5 -87 -9 -41 -11 -85 -20 -99 -20 -14 0 -76 -14 -138
-31 -122 -34 -165 -60 -188 -114 -19 -46 -34 -55 -126 -75 -46 -10 -112 -29
-148 -42 -59 -21 -67 -27 -89 -71 -21 -43 -28 -48 -80 -63 -31 -8 -70 -20 -88
-25 -18 -6 -63 -41 -100 -77 -62 -61 -75 -70 -145 -90 -42 -12 -82 -22 -90
-22 -31 0 -117 -51 -163 -97 -41 -40 -66 -55 -130 -77 -44 -15 -99 -31 -121
-36 -23 -6 -57 -21 -77 -34 -20 -14 -46 -26 -59 -28 -17 -2 -24 -11 -26 -30
-3 -28 -35 -46 -190 -113 -39 -17 -82 -56 -107 -99 -6 -10 -41 -25 -85 -36
-41 -10 -111 -32 -155 -47 -77 -27 -80 -29 -96 -73 -19 -52 -51 -75 -118 -85
-25 -4 -66 -14 -91 -23 -25 -9 -67 -18 -95 -21 l-50 -6 -10 -50 c-9 -42 -17
-53 -53 -76 -23 -14 -60 -29 -81 -33 -22 -3 -46 -9 -55 -12 -14 -5 -16 7 -16
94 l0 101 53 10 c28 6 63 12 77 13 20 3 26 10 30 38 4 31 12 39 65 67 33 18
77 35 97 38 51 9 96 42 122 89 19 34 30 42 81 56 33 10 85 27 115 40 30 12 65
26 78 31 13 5 32 28 43 54 25 57 47 71 140 89 42 8 93 22 114 30 20 9 48 16
60 16 42 0 54 11 61 56 6 41 11 47 53 68 25 13 66 27 91 31 25 4 80 23 122 43
59 28 80 44 87 64 11 32 57 57 157 87 77 23 86 30 124 100 15 27 33 47 45 49
51 8 242 65 263 79 13 8 32 34 43 57 22 50 38 59 142 86 104 26 175 66 199
110 22 42 62 64 158 86 73 16 126 51 183 121 12 15 50 32 105 49 158 47 179
63 206 155 9 28 27 64 41 81 53 63 55 78 55 387 0 295 -11 440 -35 478 -18 27
-110 62 -186 70 l-59 6 -58 -60 c-51 -53 -64 -61 -126 -77 -38 -9 -86 -27
-108 -39 -22 -12 -54 -30 -71 -39 -17 -9 -36 -30 -43 -46 -9 -21 -28 -37 -69
-56 -32 -14 -65 -26 -74 -26 -58 -1 -201 -78 -220 -117 -11 -25 -46 -42 -164
-80 -85 -28 -116 -49 -144 -101 -15 -27 -30 -37 -84 -56 -41 -13 -83 -36 -108
-59 -23 -20 -45 -37 -51 -37 -5 0 -20 -17 -34 -37 -26 -41 -86 -69 -198 -92
-31 -7 -74 -24 -95 -40 -21 -15 -46 -30 -56 -34 -9 -3 -22 -18 -27 -32 -5 -14
-21 -30 -35 -35 -14 -5 -44 -18 -68 -29 -23 -10 -58 -22 -77 -26 -54 -12 -101
-39 -150 -89 -24 -25 -50 -46 -57 -46 -8 0 -42 -13 -76 -29 -35 -15 -79 -31
-98 -35 -44 -8 -78 -38 -86 -76 -8 -43 -31 -58 -129 -85 -172 -47 -199 -63
-218 -127 -7 -24 -59 -49 -143 -68 l-73 -17 0 97 0 98 33 13 c17 7 50 30 72
49 22 20 63 45 90 55 28 10 61 26 75 35 14 10 41 21 60 25 48 10 84 38 104 80
14 30 25 37 74 50 77 22 213 76 234 93 9 8 20 27 23 43 8 37 76 73 155 84 30
4 75 16 99 26 24 10 54 19 67 19 29 0 54 25 54 55 0 33 91 108 157 129 38 13
64 30 92 62 29 33 52 48 91 60 28 8 89 33 135 56 73 35 86 45 99 79 18 44 64
73 136 83 54 8 176 43 209 59 13 7 29 28 35 47 14 42 73 85 139 99 66 15 102
35 150 86 36 37 57 48 152 80 147 48 151 50 174 105 26 61 34 66 122 89 115
29 183 66 223 120 19 25 45 60 57 76 13 17 42 51 66 77 l43 47 0 288 c0 317
-11 453 -41 495 -23 32 -84 62 -160 78 -52 12 -59 11 -104 -12 -30 -15 -61
-41 -80 -68 -27 -39 -39 -46 -115 -70 -111 -36 -176 -73 -206 -121 -28 -45
-76 -72 -159 -89 -76 -15 -148 -54 -189 -101 -37 -43 -115 -85 -188 -100 -75
-16 -129 -44 -180 -92 -24 -23 -77 -57 -118 -75 -149 -67 -165 -77 -189 -115
-18 -28 -35 -40 -65 -48 -82 -21 -192 -60 -223 -79 -18 -10 -41 -37 -52 -58
-26 -51 -54 -68 -141 -86 -93 -20 -172 -57 -196 -91 -47 -68 -75 -84 -198
-116 -36 -9 -69 -30 -119 -72 -62 -54 -81 -64 -177 -94 -112 -35 -135 -51
-174 -120 -18 -31 -30 -39 -83 -53 l-63 -17 0 48 c0 54 -6 58 -59 36 -43 -18
-181 2 -196 29 -5 10 -29 39 -53 65 l-43 47 38 -9 c21 -5 100 -12 176 -16
l137 -6 0 50 0 49 63 13 c108 22 140 41 165 99 24 56 53 82 92 82 68 1 156 48
229 122 38 38 75 55 176 83 52 14 68 25 120 81 60 64 61 64 166 92 58 15 118
36 133 46 16 10 39 42 52 71 26 59 19 56 168 89 90 21 144 52 179 104 32 48
63 66 127 76 72 11 124 40 188 104 49 49 72 64 119 77 158 46 155 45 188 109
l30 60 64 12 c78 16 188 52 218 71 12 8 31 34 42 59 23 49 34 55 133 77 119
28 236 112 224 161 -3 12 -10 53 -17 91 -15 86 -26 103 -100 159 -42 32 -76
48 -117 56 -91 19 -110 29 -137 75 -31 54 -103 90 -219 112 -45 9 -88 19 -96
22 -8 4 -27 33 -42 64 -35 72 -64 87 -243 128 -49 11 -82 38 -127 103 -10 14
-38 30 -65 39 -27 8 -84 25 -128 38 -71 21 -86 30 -135 80 -61 62 -96 84 -155
94 -65 12 -112 41 -131 80 -9 20 -28 44 -43 54 -34 25 -132 57 -196 66 -81 11
-103 23 -124 70 -11 24 -30 50 -43 58 -36 24 -156 67 -223 80 -53 11 -62 16
-77 47 -26 51 -49 69 -119 95 -35 13 -86 31 -114 42 -30 11 -70 38 -100 67
-65 64 -86 77 -148 91 l-52 11 -3 47 c-3 50 -8 53 -67 41z m75 -1850 l0 -1757
-77 7 c-168 15 -227 42 -253 114 -22 58 -35 67 -110 82 -95 18 -192 70 -229
124 -28 40 -38 46 -118 71 -81 26 -93 33 -148 91 -56 58 -67 65 -163 98 -126
42 -144 54 -167 103 -26 57 -53 81 -99 88 -70 12 -109 34 -176 99 -40 39 -80
69 -103 76 -22 7 -51 18 -65 26 -15 8 -34 14 -42 14 -36 2 -86 40 -111 86 -25
47 -29 50 -93 67 -98 25 -177 75 -220 137 -24 35 -76 61 -186 90 -34 9 -59 27
-106 76 -33 35 -68 64 -77 64 -18 0 -75 26 -162 73 -56 30 -63 38 -100 112
-23 44 -55 100 -73 124 l-32 44 59 58 c55 53 103 78 151 79 39 1 97 39 116 76
16 32 34 46 94 76 41 20 106 42 143 49 52 9 73 18 88 37 10 14 19 30 19 37 0
34 85 78 240 122 63 18 83 33 115 84 25 39 69 64 137 78 72 15 138 46 156 73
21 32 101 93 146 112 20 8 56 18 81 21 47 7 74 29 124 95 14 18 41 39 60 47
20 8 50 20 66 28 17 7 64 20 105 29 61 12 79 20 95 43 11 15 32 39 46 53 30
28 191 94 258 105 34 6 47 13 60 37 31 57 51 77 99 93 175 63 187 69 244 125
59 57 120 89 176 89 l32 1 0 -1756z m-2977 -362 c39 -17 51 -30 68 -66 23 -53
23 -53 96 -72 69 -17 171 -60 197 -83 10 -9 27 -33 37 -53 23 -44 72 -72 143
-82 77 -10 180 -62 220 -111 35 -42 69 -61 168 -89 48 -14 64 -26 107 -74 47
-55 55 -60 151 -92 121 -40 156 -60 178 -102 36 -66 53 -77 137 -93 154 -29
190 -48 232 -124 22 -39 63 -63 158 -90 59 -17 80 -29 129 -76 57 -55 104 -80
207 -111 59 -18 94 -46 119 -94 24 -47 27 -49 103 -65 138 -29 222 -75 247
-135 16 -39 62 -66 130 -74 30 -4 76 -12 103 -17 l47 -11 0 -574 0 -574 -107
0 c-164 0 -192 13 -193 87 0 29 -24 41 -118 59 -42 8 -96 22 -119 30 -70 27
-133 -5 -133 -66 0 -23 7 -35 33 -50 17 -11 43 -23 57 -26 112 -25 127 -33
174 -90 51 -62 86 -79 271 -129 50 -13 100 -27 113 -31 l22 -6 0 -559 0 -559
-87 -2 c-183 -3 -219 8 -229 73 -9 51 -33 68 -121 80 -37 5 -84 14 -103 19
-67 19 -160 -19 -160 -64 0 -18 108 -76 142 -76 13 0 42 -9 65 -20 40 -18 58
-42 77 -102 3 -10 20 -20 43 -24 21 -4 63 -16 93 -26 30 -11 93 -31 140 -44
47 -14 89 -29 94 -35 6 -5 18 -9 28 -9 17 0 18 -27 18 -560 l0 -560 -92 0
c-98 0 -182 17 -225 46 -15 9 -45 36 -69 60 -23 24 -49 44 -58 44 -18 0 -173
53 -205 69 -12 7 -32 34 -46 61 -30 59 -53 75 -120 85 -108 15 -199 65 -231
127 -17 32 -73 61 -143 72 -61 9 -97 31 -164 96 -52 50 -69 60 -156 89 -104
34 -129 53 -153 111 -21 49 -32 55 -127 74 -46 10 -112 30 -147 46 -51 23 -66
36 -84 69 -23 46 -52 63 -142 81 -70 14 -170 74 -202 121 -26 37 -67 58 -186
92 -46 14 -64 26 -106 74 -49 56 -55 59 -150 87 -143 42 -169 57 -199 115 -25
50 -30 54 -95 66 -54 11 -100 38 -162 97 -91 85 -93 101 -91 513 2 349 11 456
41 507 25 44 71 68 128 68 27 0 73 3 103 7 45 5 56 10 72 37 39 63 18 94 -79
115 -66 14 -105 32 -161 74 -51 38 -74 77 -97 167 -15 57 -16 109 -9 460 7
368 8 397 27 431 32 58 61 69 185 69 59 0 126 5 147 10 44 10 92 51 83 72 -5
15 -76 43 -179 72 -63 18 -102 55 -113 107 -5 20 -18 37 -37 48 -56 30 -86 61
-104 106 -15 41 -16 79 -8 439 9 377 10 396 30 423 11 15 36 39 55 51 31 22
42 23 139 20 80 -3 116 -9 153 -26z m2964 -2968 c-3 -3 -12 -4 -19 -1 -8 3 -5
6 6 6 11 1 17 -2 13 -5z m16 -1339 c-18 -13 -26 -13 -59 -1 l-39 15 60 0 c55
1 58 0 38 -14z"/>
<path d="M9990 8083 l-42 -38 -8 -105 c-5 -58 -9 -847 -10 -1753 l0 -1648 29
-43 c16 -23 48 -58 70 -77 23 -19 68 -57 100 -86 38 -33 75 -56 103 -63 172
-44 212 -63 284 -130 34 -33 66 -52 95 -59 24 -6 79 -23 122 -36 129 -41 266
-31 321 24 31 31 31 32 37 164 3 72 13 175 22 227 15 85 17 249 17 1551 l0
1455 -28 27 c-15 14 -54 40 -87 56 -36 18 -69 44 -83 64 -40 60 -77 87 -168
123 -154 61 -162 66 -203 114 -33 39 -52 51 -118 74 -99 35 -168 75 -213 121
-47 49 -100 75 -153 75 -37 0 -51 -6 -87 -37z m128 -77 c15 -8 43 -31 62 -51
43 -45 113 -85 207 -118 57 -21 83 -37 125 -80 39 -40 69 -60 113 -76 156 -56
182 -71 228 -131 34 -43 61 -65 113 -92 l69 -34 3 -1407 c2 -1272 0 -1416 -15
-1504 -9 -54 -19 -158 -22 -231 -7 -152 -8 -155 -89 -166 -36 -5 -66 -1 -127
19 -44 13 -100 30 -124 36 -29 7 -61 26 -95 59 -72 67 -112 86 -285 130 -28 8
-62 28 -95 59 -28 26 -63 55 -78 64 -15 9 -41 37 -57 61 l-31 45 0 1598 c1
879 5 1645 10 1702 6 82 12 108 26 118 22 16 29 16 62 -1z"/>
<path d="M2420 8003 c-13 -9 -38 -33 -55 -52 -30 -35 -150 -97 -233 -122 -30
-9 -60 -29 -94 -65 -57 -59 -101 -81 -237 -115 -94 -24 -101 -29 -157 -97 -14
-18 -45 -42 -68 -54 -22 -11 -51 -30 -63 -41 l-23 -20 0 -1628 c0 -1082 3
-1644 10 -1676 16 -72 21 -78 57 -60 16 9 56 23 89 31 75 19 197 54 252 73 24
8 62 34 85 58 45 45 131 93 237 131 35 13 68 31 73 39 21 39 70 84 114 106 26
13 58 33 71 43 l22 19 0 1713 c0 1684 0 1713 -19 1724 -26 14 -32 13 -61 -7z"/>
<path d="M9799 3960 c-19 -10 -65 -28 -102 -40 -39 -13 -85 -37 -110 -57 -44
-38 -149 -90 -256 -129 -50 -17 -77 -35 -116 -76 -46 -47 -66 -59 -179 -103
-102 -40 -134 -57 -158 -85 -60 -71 -70 -79 -121 -96 -84 -27 -144 -61 -172
-98 -29 -38 -91 -68 -200 -96 -93 -24 -149 -52 -177 -90 -28 -38 -100 -74
-200 -99 -96 -25 -151 -53 -179 -91 -24 -32 -120 -85 -216 -120 -46 -16 -74
-35 -113 -76 -54 -56 -70 -63 -270 -118 -44 -12 -66 -26 -108 -70 -31 -32 -68
-60 -90 -67 -53 -17 -115 -62 -164 -119 -47 -55 -70 -64 -178 -76 -76 -7 -100
-20 -140 -76 l-30 -41 0 -514 0 -513 41 -45 c38 -41 46 -45 87 -45 62 0 124
32 173 90 30 36 60 57 120 84 44 20 93 39 108 42 18 4 51 29 85 65 51 53 64
61 138 83 46 14 106 30 133 37 49 12 105 51 105 75 0 28 58 73 116 89 153 42
187 56 236 100 33 29 69 50 106 62 73 22 130 60 184 123 47 54 76 68 207 95
88 18 122 38 182 103 39 43 55 53 127 76 46 14 90 26 98 26 28 0 114 50 135
80 24 32 120 85 216 120 46 16 74 35 113 76 54 57 72 64 275 120 49 13 69 26
110 69 44 47 64 58 170 99 103 41 126 54 165 95 51 54 79 71 163 95 47 14 70
29 120 77 67 66 111 90 203 110 67 14 141 48 166 76 10 10 24 39 33 63 9 24
27 63 40 86 16 28 25 58 25 86 0 55 -18 73 -145 148 -49 29 -118 79 -151 111
-34 32 -86 69 -115 82 -37 16 -69 41 -102 80 -37 44 -58 59 -100 73 -28 9 -73
27 -99 40 -59 30 -137 31 -189 4z m139 -94 c26 -13 70 -31 99 -40 39 -13 58
-26 73 -51 25 -41 74 -79 135 -105 26 -11 75 -46 108 -79 34 -32 103 -82 152
-111 50 -30 92 -55 94 -57 2 -1 -7 -24 -21 -50 -14 -27 -31 -64 -37 -84 -9
-29 -21 -40 -59 -57 -26 -11 -72 -26 -102 -33 -91 -20 -139 -46 -200 -109 -48
-48 -70 -62 -117 -76 -86 -25 -128 -49 -168 -97 -32 -38 -53 -50 -162 -93
-121 -47 -157 -70 -205 -131 -9 -12 -42 -28 -75 -37 -209 -59 -224 -65 -278
-121 -39 -41 -67 -60 -119 -79 -100 -38 -183 -85 -215 -122 -30 -33 -98 -74
-125 -74 -8 0 -52 -12 -98 -26 -72 -23 -89 -33 -133 -78 -69 -72 -87 -82 -191
-105 -126 -27 -154 -41 -203 -99 -52 -62 -98 -92 -173 -115 -37 -12 -73 -33
-106 -62 -49 -44 -83 -58 -235 -100 -65 -18 -125 -65 -151 -118 -13 -28 -23
-35 -68 -45 -29 -7 -91 -24 -137 -38 -77 -23 -91 -32 -140 -83 -32 -33 -69
-61 -86 -65 -78 -19 -191 -84 -242 -139 -63 -67 -98 -81 -125 -47 -17 21 -18
51 -18 482 0 447 1 462 20 494 23 37 30 40 115 49 109 12 131 21 181 80 54 62
101 96 159 115 24 8 60 34 92 68 51 53 57 56 161 84 138 37 184 60 227 113 27
32 50 48 98 65 95 34 194 89 226 126 37 42 74 61 169 85 100 25 173 61 210
104 38 43 75 61 167 85 108 28 171 58 209 101 39 42 73 62 154 90 66 23 113
57 141 102 17 28 39 40 148 82 114 44 134 56 182 104 39 40 70 60 115 77 104
37 209 90 253 127 25 20 71 44 110 57 37 12 83 30 102 40 20 11 37 19 39 20 1
0 24 -11 50 -24z"/>
<path d="M2570 3839 c-57 -33 -95 -63 -116 -92 -31 -42 -107 -98 -151 -111
-12 -4 -33 -27 -48 -51 -30 -52 -74 -88 -130 -105 -55 -17 -115 -48 -115 -60
0 -14 52 -154 62 -167 5 -7 33 -20 61 -29 88 -29 202 -91 234 -128 40 -44 71
-60 170 -85 101 -25 171 -59 209 -103 50 -57 96 -85 159 -98 133 -25 161 -38
205 -87 54 -62 80 -78 165 -104 57 -17 79 -30 120 -72 50 -50 110 -83 235
-128 49 -17 78 -36 118 -77 50 -51 57 -55 174 -88 137 -39 173 -58 220 -115
30 -36 43 -42 142 -70 132 -36 155 -48 192 -94 61 -77 79 -90 144 -103 94 -20
161 -53 205 -104 46 -51 79 -70 172 -99 55 -17 76 -30 118 -75 51 -53 55 -54
160 -79 135 -32 157 -43 225 -114 50 -53 66 -62 178 -106 108 -42 127 -53 167
-97 57 -63 75 -59 101 20 15 48 18 103 22 352 3 198 0 332 -9 407 -11 103 -15
115 -42 143 -17 17 -51 40 -77 51 -26 11 -70 44 -99 73 -31 34 -62 56 -82 60
-61 12 -202 86 -239 125 -47 49 -82 67 -178 92 -100 25 -175 62 -209 103 -28
34 -99 76 -127 76 -8 0 -52 12 -97 26 -71 22 -88 33 -139 84 -62 62 -95 83
-150 95 -58 12 -107 42 -146 89 -38 46 -57 54 -226 101 -65 18 -120 60 -148
114 -17 34 -23 37 -111 60 -119 30 -174 56 -202 93 -64 84 -69 88 -162 113
-114 30 -169 55 -236 105 -29 22 -83 49 -119 61 -92 30 -195 86 -228 124 -40
44 -74 62 -172 89 -47 13 -92 26 -100 29 -8 3 -52 -16 -100 -44z"/>
</g>
</svg>
